<svg id="Capa_1" enable-background="new 0 0 510 510" height="512" viewBox="0 0 510 510" width="512" xmlns="http://www.w3.org/2000/svg" xmlns:xlink="http://www.w3.org/1999/xlink"><linearGradient id="lg1"><stop offset="0" stop-color="#7faef4"/><stop offset="1" stop-color="#4c8df1"/></linearGradient><linearGradient id="SVGID_1_" gradientUnits="userSpaceOnUse" x1="107.454" x2="470.722" xlink:href="#lg1" y1="107.454" y2="470.722"/><linearGradient id="lg2"><stop offset="0" stop-color="#4256ac" stop-opacity="0"/><stop offset="1" stop-color="#1b1464"/></linearGradient><linearGradient id="SVGID_2_" gradientUnits="userSpaceOnUse" x1="444.327" x2="189.341" xlink:href="#lg2" y1="444.646" y2="189.66"/><linearGradient id="SVGID_3_" gradientUnits="userSpaceOnUse" x1="255" x2="255" xlink:href="#lg2" y1="456.522" y2="548.848"/><linearGradient id="SVGID_4_" gradientUnits="userSpaceOnUse" x1="102.582" x2="16.89" xlink:href="#lg2" y1="91.014" y2="5.322"/><linearGradient id="SVGID_5_" gradientUnits="userSpaceOnUse" x1="97.929" x2="30.027" xlink:href="#lg2" y1="495.278" y2="427.376"/><linearGradient id="SVGID_6_" gradientUnits="userSpaceOnUse" x1="486.864" x2="433.834" xlink:href="#lg2" y1="89.373" y2="36.344"/><linearGradient id="SVGID_7_" gradientUnits="userSpaceOnUse" x1="478.652" x2="433.055" xlink:href="#lg2" y1="490.079" y2="444.483"/><linearGradient id="lg3"><stop offset="0" stop-color="#e3e5e4"/><stop offset="1" stop-color="#cbd0e4"/></linearGradient><linearGradient id="SVGID_8_" gradientUnits="userSpaceOnUse" x1="52.022" x2="73.014" xlink:href="#lg3" y1="40.125" y2="61.116"/><linearGradient id="SVGID_9_" gradientTransform="matrix(-1 0 0 -1 150 135.333)" gradientUnits="userSpaceOnUse" x1="82.446" x2="93.361" xlink:href="#lg3" y1="79.676" y2="90.592"/><linearGradient id="SVGID_10_" gradientUnits="userSpaceOnUse" x1="437.541" x2="458.532" xlink:href="#lg3" y1="40.125" y2="61.116"/><linearGradient id="SVGID_11_" gradientTransform="matrix(-1 0 0 -1 150 135.333)" gradientUnits="userSpaceOnUse" x1="-303.073" x2="-292.157" xlink:href="#lg3" y1="79.676" y2="90.592"/><linearGradient id="SVGID_12_" gradientUnits="userSpaceOnUse" x1="52.022" x2="73.014" xlink:href="#lg3" y1="449.438" y2="470.429"/><linearGradient id="SVGID_13_" gradientTransform="matrix(-1 0 0 -1 150 135.333)" gradientUnits="userSpaceOnUse" x1="82.446" x2="93.361" xlink:href="#lg3" y1="-329.637" y2="-318.721"/><linearGradient id="SVGID_14_" gradientUnits="userSpaceOnUse" x1="437.541" x2="458.532" xlink:href="#lg3" y1="449.438" y2="470.429"/><linearGradient id="SVGID_15_" gradientTransform="matrix(-1 0 0 -1 150 135.333)" gradientUnits="userSpaceOnUse" x1="-303.073" x2="-292.157" xlink:href="#lg3" y1="-329.637" y2="-318.721"/><linearGradient id="SVGID_16_" gradientUnits="userSpaceOnUse" x1="215.406" x2="313.888" y1="215.406" y2="313.888"><stop offset="0" stop-color="#ebeff0"/><stop offset="1" stop-color="#e3e5e4"/></linearGradient><linearGradient id="SVGID_17_" gradientUnits="userSpaceOnUse" x1="211.527" x2="323.117" xlink:href="#lg1" y1="212.311" y2="323.901"/><g><path d="m461.824 510h-413.648c-26.607 0-48.176-21.569-48.176-48.176v-413.648c0-26.607 21.569-48.176 48.176-48.176h413.649c26.606 0 48.175 21.569 48.175 48.176v413.649c0 26.606-21.569 48.175-48.176 48.175z" fill="url(#SVGID_1_)"/><path d="m397.803 130.191c-36.307-40.375-89.705-65.1-148.807-62.749-98.154 3.906-177.967 83.718-181.872 181.873-2.352 59.102 22.374 112.501 62.749 148.807l111.877 111.878h220.074c26.607 0 48.176-21.569 48.176-48.176v-219.436z" fill="url(#SVGID_2_)"/><path d="m0 391.836v69.988c0 26.607 21.569 48.176 48.176 48.176h413.649c26.606 0 48.175-21.569 48.175-48.176v-69.988z" fill="url(#SVGID_3_)"/><path d="m121.688 110.119c-10.12 10.12-26.529 10.12-36.649 0l-38.943-38.943c-5.523-4.966-8.905-12.27-8.583-20.355.534-13.426 11.451-24.343 24.877-24.877 8.084-.322 15.388 3.06 20.355 8.583l38.943 38.943c10.12 10.12 10.12 26.529 0 36.649z" fill="url(#SVGID_4_)"/><path d="m82.745 443.445c-4.966-5.523-12.27-8.905-20.355-8.583-13.426.534-24.343 11.451-24.877 24.877-.322 8.084 3.06 15.388 8.583 20.355l29.906 29.906h51.54c3.551-9.262 1.612-20.146-5.855-27.612z" fill="url(#SVGID_5_)"/><path d="m510 76.27c-.729-.971-1.507-1.917-2.391-2.8l-38.943-38.943c-4.966-5.523-12.27-8.905-20.354-8.583-13.426.534-24.343 11.451-24.878 24.877-.322 8.084 3.06 15.388 8.583 20.355l38.943 38.943c10.12 10.12 26.529 10.12 36.649 0 .884-.884 1.662-1.829 2.391-2.8z" fill="url(#SVGID_6_)"/><path d="m506.084 480.863-37.418-37.418c-4.966-5.523-12.27-8.905-20.354-8.583-13.426.534-24.343 11.451-24.878 24.877-.322 8.084 3.06 15.388 8.583 20.355l29.904 29.904c19.802-.04 36.794-12.026 44.163-29.135z" fill="url(#SVGID_7_)"/><g><circle cx="62.241" cy="50.343" fill="url(#SVGID_8_)" r="25.911"/><circle cx="62.241" cy="50.343" fill="url(#SVGID_9_)" r="13.474"/></g><g><circle cx="447.759" cy="50.343" fill="url(#SVGID_10_)" r="25.911"/><circle cx="447.759" cy="50.343" fill="url(#SVGID_11_)" r="13.474"/></g><g><circle cx="62.241" cy="459.657" fill="url(#SVGID_12_)" r="25.911"/><circle cx="62.241" cy="459.657" fill="url(#SVGID_13_)" r="13.474"/></g><g><circle cx="447.759" cy="459.657" fill="url(#SVGID_14_)" r="25.911"/><circle cx="447.759" cy="459.657" fill="url(#SVGID_15_)" r="13.474"/></g><circle cx="255" cy="255" fill="url(#SVGID_16_)" r="192.759"/><path d="m353.81 240.121h-84.012c-8.084 0-14.637 6.553-14.637 14.637v10.691c0 8.084 6.553 14.637 14.637 14.637h46.39c.81 0 1.371.828 1.054 1.573-10.374 24.367-34.56 41.166-62.68 40.988-45.86-.29-80.887-46.205-61.978-94.64 6.178-15.826 18.573-28.569 34.307-34.977 24.822-10.109 49.074-5.986 66.963 6.584 5.792 4.07 13.709 3.244 18.715-1.762l7.566-7.566c6.359-6.359 5.473-16.856-1.789-22.161-27.048-19.756-63.665-27.189-101.6-14.031-28.871 10.014-51.884 32.617-62.204 61.381-27.425 76.44 29.016 147.944 101.84 147.029 58.971-.741 106.129-49.36 106.129-108.335v-5.345c.001-4.807-3.895-8.703-8.701-8.703z" fill="url(#SVGID_17_)"/></g></svg>